<svg width="24" height="24" viewBox="0 0 24 24" fill="none" xmlns="http://www.w3.org/2000/svg">
<g id="discount" clip-path="url(#clip0_6256_177330)">
<g id="Group">
<g id="Group_2">
<g id="Group_3">
<path id="Exclude" fill-rule="evenodd" clip-rule="evenodd" d="M22.7992 5.52035V9.84035C21.6112 9.84035 20.6392 10.8124 20.6392 12.0004C20.6392 13.1884 21.6112 14.1604 22.7992 14.1604V18.4804C22.7992 19.6684 21.8272 20.6404 20.6392 20.6404H3.35922C2.17122 20.6404 1.19922 19.6684 1.19922 18.4804V14.1604C2.39802 14.1604 3.35922 13.1884 3.35922 12.0004C3.35922 10.8124 2.39802 9.84035 1.21002 9.84035V5.52035C1.21002 4.32155 2.17122 3.36035 3.35922 3.36035H20.6392C21.8272 3.36035 22.7992 4.32155 22.7992 5.52035ZM7.62126 11.4351C8.01706 11.6571 8.4563 11.7681 8.93898 11.7681C9.41201 11.7681 9.84159 11.6571 10.2277 11.4351C10.6235 11.2131 10.9325 10.9138 11.1545 10.5373C11.3765 10.1608 11.4875 9.7457 11.4875 9.29198C11.4875 8.83826 11.3765 8.42315 11.1545 8.04666C10.9325 7.67017 10.6235 7.37091 10.2277 7.14887C9.84159 6.92684 9.41201 6.81582 8.93898 6.81582C8.4563 6.81582 8.01706 6.92684 7.62126 7.14887C7.23511 7.37091 6.93103 7.67017 6.70899 8.04666C6.48696 8.42315 6.37594 8.83826 6.37594 9.29198C6.37594 9.7457 6.48696 10.1608 6.70899 10.5373C6.93103 10.9138 7.23511 11.2131 7.62126 11.4351ZM14.6443 6.81582L8.21496 16.4164L9.35891 17.1838L15.7882 7.58329L14.6443 6.81582ZM9.64852 10.0594C9.4651 10.2525 9.22859 10.3491 8.93898 10.3491C8.65903 10.3491 8.42251 10.2525 8.22944 10.0594C8.03637 9.85672 7.93983 9.6009 7.93983 9.29198C7.93983 8.98306 8.03637 8.73207 8.22944 8.539C8.42251 8.33627 8.65903 8.23491 8.93898 8.23491C9.22859 8.23491 9.4651 8.33144 9.64852 8.52452C9.84159 8.71759 9.93813 8.97341 9.93813 9.29198C9.93813 9.61055 9.84159 9.86637 9.64852 10.0594ZM13.761 16.8508C14.1568 17.0728 14.596 17.1838 15.0787 17.1838C15.5517 17.1838 15.9813 17.0728 16.3674 16.8508C16.7632 16.6287 17.0722 16.3295 17.2942 15.953C17.5162 15.5765 17.6272 15.1614 17.6272 14.7077C17.6272 14.2539 17.5162 13.8388 17.2942 13.4623C17.0722 13.0859 16.7632 12.7866 16.3674 12.5646C15.9813 12.3425 15.5517 12.2315 15.0787 12.2315C14.596 12.2315 14.1568 12.3425 13.761 12.5646C13.3748 12.7866 13.0707 13.0859 12.8487 13.4623C12.6267 13.8388 12.5157 14.2539 12.5157 14.7077C12.5157 15.1614 12.6267 15.5765 12.8487 15.953C13.0707 16.3295 13.3748 16.6287 13.761 16.8508ZM15.7882 15.4751C15.6048 15.6682 15.3683 15.7647 15.0787 15.7647C14.7987 15.7647 14.5622 15.6682 14.3691 15.4751C14.1761 15.2724 14.0795 15.0166 14.0795 14.7077C14.0795 14.3988 14.1761 14.1478 14.3691 13.9547C14.5622 13.752 14.7987 13.6506 15.0787 13.6506C15.3683 13.6506 15.6048 13.7471 15.7882 13.9402C15.9813 14.1333 16.0778 14.3891 16.0778 14.7077C16.0778 15.0262 15.9813 15.2821 15.7882 15.4751Z" fill="#FFD333"/>
</g>
</g>
</g>
</g>
<defs>
<clipPath id="clip0_6256_177330">
<rect width="24" height="24" fill="white"/>
</clipPath>
</defs>
</svg>
