<svg width="24" height="24" viewBox="0 0 24 24" fill="none" xmlns="http://www.w3.org/2000/svg">
<g id="Rounded / headset_mic">
<path id="Vector" d="M11.4 1.02048C6.62 1.33048 3 5.52048 3 10.3105V17.0005C3 18.6605 4.34 20.0005 6 20.0005H7C8.1 20.0005 9 19.1005 9 18.0005V14.0005C9 12.9005 8.1 12.0005 7 12.0005H5V10.2905C5 6.45048 7.96 3.11048 11.79 3.00048C15.76 2.89048 19 6.06048 19 10.0005V12.0005H17C15.9 12.0005 15 12.9005 15 14.0005V18.0005C15 19.1005 15.9 20.0005 17 20.0005H19V21.0005H13C12.45 21.0005 12 21.4505 12 22.0005C12 22.5505 12.45 23.0005 13 23.0005H18C19.66 23.0005 21 21.6605 21 20.0005V10.0005C21 4.83048 16.64 0.680479 11.4 1.02048Z" fill="#FFD333"/>
</g>
</svg>
