<svg id="Layer_1" data-name="Layer 1" xmlns="http://www.w3.org/2000/svg" viewBox="0 0 400 200"><defs><style>.cls-1,.cls-2{fill:#fff;}.cls-2{font-size:38.34px;font-family:Poppins-Bold, Poppins;font-weight:700;}.cls-3{fill:#ffd800;}</style></defs><path class="cls-1" d="M167.55,22.87A15.11,15.11,0,0,0,152.44,38V60.33h-7.21A1.21,1.21,0,0,0,144,61.54V72.2a1.21,1.21,0,0,0,1.21,1.2h7.21v50.78a1.21,1.21,0,0,0,1.21,1.2h14.9a1.21,1.21,0,0,0,1-.62,1.14,1.14,0,0,0,.15-.58V117h59.48v7.22a1.14,1.14,0,0,0,.15.58,1.2,1.2,0,0,0,1.05.62h14.9a1.21,1.21,0,0,0,1.21-1.2V73.4h7.21a1.2,1.2,0,0,0,1.2-1.2V61.54a1.21,1.21,0,0,0-1.2-1.21h-7.21V38a15.11,15.11,0,0,0-15.12-15.11"/><path class="cls-1" d="M160.37,38a7.19,7.19,0,0,1,7.18-7.18h63.87A7.2,7.2,0,0,1,238.61,38V39.5H160.37Z"/><rect class="cls-1" x="203.51" y="47.53" width="35.1" height="29.81"/><rect class="cls-1" x="160.37" y="47.53" width="35.1" height="29.81"/><rect class="cls-1" x="160.37" y="85.38" width="78.23" height="23.65"/><rect class="cls-1" x="165.05" y="95.18" width="17.98" height="8.04"/><rect class="cls-1" x="215.95" y="95.18" width="17.98" height="8.04"/><text class="cls-2" transform="translate(4.24 179.68)">Ha Giang <tspan class="cls-3" x="188.73" y="0">Bus Ticket</tspan></text></svg>